<?xml version="1.0" encoding="UTF-8"?>
<!-- Generated by SVGo -->
<svg width="167.165mm" height="105.252mm" viewBox="0.000 0.000 167.165 105.252" xmlns="http://www.w3.org/2000/svg" xmlns:xlink="http://www.w3.org/1999/xlink">
<polygon points="162.164,100.251 5.001,100.251 5.001,5.001 162.164,5.001" style="fill:none;stroke-width:0.050000mm;stroke:black"/>
<polygon points="128.968,83.726 128.968,88.426 127.444,88.426 127.444,85.196 120.694,85.196 120.694,88.426 119.869,88.426 119.869,91.226 120.694,91.226 120.694,97.495 122.419,97.495 122.419,98.696 125.719,98.696 125.719,97.495 127.444,97.495 127.444,93.025 128.968,93.025 128.968,97.726 142.969,97.726 142.969,93.025 144.494,93.025 144.494,97.495 146.219,97.495 146.219,98.696 149.519,98.696 149.519,97.495 151.244,97.495 151.244,91.226 152.069,91.226 152.069,88.426 151.244,88.426 151.244,85.196 144.494,85.196 144.494,88.426 142.969,88.426 142.969,83.726" style="fill:none;stroke-width:0.050000mm;stroke:black"/>
<polygon points="98.013,83.726 98.013,97.726 112.013,97.726 112.013,83.726" style="fill:none;stroke-width:0.050000mm;stroke:black"/>
<polygon points="76.582,83.726 76.582,97.726 90.582,97.726 90.582,83.726" style="fill:none;stroke-width:0.050000mm;stroke:black"/>
<polygon points="52.769,83.726 52.769,97.726 66.769,97.726 66.769,83.726" style="fill:none;stroke-width:0.050000mm;stroke:black"/>
<polygon points="28.957,83.726 28.957,97.726 42.957,97.726 42.957,83.726" style="fill:none;stroke-width:0.050000mm;stroke:black"/>
<polygon points="7.526,83.726 7.526,97.726 21.526,97.726 21.526,83.726" style="fill:none;stroke-width:0.050000mm;stroke:black"/>
<polygon points="38.482,64.676 38.482,69.376 36.957,69.376 36.957,66.146 30.207,66.146 30.207,69.376 29.382,69.376 29.382,72.176 30.207,72.176 30.207,78.446 31.932,78.446 31.932,79.646 35.232,79.646 35.232,78.446 36.957,78.446 36.957,73.976 38.482,73.976 38.482,78.676 52.482,78.676 52.482,73.976 54.007,73.976 54.007,78.446 55.732,78.446 55.732,79.646 59.032,79.646 59.032,78.446 60.757,78.446 60.757,72.176 61.582,72.176 61.582,69.376 60.757,69.376 60.757,66.146 54.007,66.146 54.007,69.376 52.482,69.376 52.482,64.676" style="fill:none;stroke-width:0.050000mm;stroke:black"/>
<polygon points="145.638,64.676 145.638,78.676 159.638,78.676 159.638,64.676" style="fill:none;stroke-width:0.050000mm;stroke:black"/>
<polygon points="126.588,64.676 126.588,78.676 140.588,78.676 140.588,64.676" style="fill:none;stroke-width:0.050000mm;stroke:black"/>
<polygon points="107.538,64.676 107.538,78.676 121.538,78.676 121.538,64.676" style="fill:none;stroke-width:0.050000mm;stroke:black"/>
<polygon points="88.488,64.676 88.488,78.676 102.488,78.676 102.488,64.676" style="fill:none;stroke-width:0.050000mm;stroke:black"/>
<polygon points="69.438,64.676 69.438,78.676 83.438,78.676 83.438,64.676" style="fill:none;stroke-width:0.050000mm;stroke:black"/>
<polygon points="7.526,64.676 7.526,78.676 21.526,78.676 21.526,64.676" style="fill:none;stroke-width:0.050000mm;stroke:black"/>
<polygon points="136.113,45.626 136.113,59.626 150.113,59.626 150.113,45.626" style="fill:none;stroke-width:0.050000mm;stroke:black"/>
<polygon points="117.063,45.626 117.063,59.626 131.063,59.626 131.063,45.626" style="fill:none;stroke-width:0.050000mm;stroke:black"/>
<polygon points="98.013,45.626 98.013,59.626 112.013,59.626 112.013,45.626" style="fill:none;stroke-width:0.050000mm;stroke:black"/>
<polygon points="78.963,45.626 78.963,59.626 92.963,59.626 92.963,45.626" style="fill:none;stroke-width:0.050000mm;stroke:black"/>
<polygon points="59.913,45.626 59.913,59.626 73.913,59.626 73.913,45.626" style="fill:none;stroke-width:0.050000mm;stroke:black"/>
<polygon points="33.719,45.626 33.719,59.626 47.719,59.626 47.719,45.626" style="fill:none;stroke-width:0.050000mm;stroke:black"/>
<polygon points="7.526,45.626 7.526,59.626 21.526,59.626 21.526,45.626" style="fill:none;stroke-width:0.050000mm;stroke:black"/>
<polygon points="131.351,26.576 131.351,40.576 145.351,40.576 145.351,26.576" style="fill:none;stroke-width:0.050000mm;stroke:black"/>
<polygon points="112.301,26.576 112.301,40.576 126.301,40.576 126.301,26.576" style="fill:none;stroke-width:0.050000mm;stroke:black"/>
<polygon points="93.251,26.576 93.251,40.576 107.251,40.576 107.251,26.576" style="fill:none;stroke-width:0.050000mm;stroke:black"/>
<polygon points="74.201,26.576 74.201,40.576 88.201,40.576 88.201,26.576" style="fill:none;stroke-width:0.050000mm;stroke:black"/>
<polygon points="55.151,26.576 55.151,40.576 69.151,40.576 69.151,26.576" style="fill:none;stroke-width:0.050000mm;stroke:black"/>
<polygon points="31.338,26.576 31.338,40.576 45.338,40.576 45.338,26.576" style="fill:none;stroke-width:0.050000mm;stroke:black"/>
<polygon points="7.526,26.576 7.526,40.576 21.526,40.576 21.526,26.576" style="fill:none;stroke-width:0.050000mm;stroke:black"/>
<polygon points="140.876,7.526 140.876,21.526 154.876,21.526 154.876,7.526" style="fill:none;stroke-width:0.050000mm;stroke:black"/>
<polygon points="121.825,7.526 121.825,21.526 135.826,21.526 135.826,7.526" style="fill:none;stroke-width:0.050000mm;stroke:black"/>
<polygon points="102.775,7.526 102.775,21.526 116.775,21.526 116.775,7.526" style="fill:none;stroke-width:0.050000mm;stroke:black"/>
<polygon points="83.726,7.526 83.726,21.526 97.726,21.526 97.726,7.526" style="fill:none;stroke-width:0.050000mm;stroke:black"/>
<polygon points="64.676,7.526 64.676,21.526 78.676,21.526 78.676,7.526" style="fill:none;stroke-width:0.050000mm;stroke:black"/>
<polygon points="45.626,7.526 45.626,21.526 59.626,21.526 59.626,7.526" style="fill:none;stroke-width:0.050000mm;stroke:black"/>
<polygon points="26.576,7.526 26.576,21.526 40.576,21.526 40.576,7.526" style="fill:none;stroke-width:0.050000mm;stroke:black"/>
<polygon points="7.526,7.526 7.526,21.526 21.526,21.526 21.526,7.526" style="fill:none;stroke-width:0.050000mm;stroke:black"/>
</svg>