<?xml version="1.0" encoding="UTF-8"?>
<!-- Generated by SVGo -->
<svg width="314.802mm" height="105.252mm" viewBox="0.000 0.000 314.802 105.252" xmlns="http://www.w3.org/2000/svg" xmlns:xlink="http://www.w3.org/1999/xlink">
<polygon points="309.802,100.251 5.001,100.251 5.001,5.001 309.802,5.001" style="fill:none;stroke-width:0.050000mm;stroke:black"/>
<polygon points="171.832,83.726 171.832,88.426 170.307,88.426 170.307,85.196 163.557,85.196 163.557,88.426 162.732,88.426 162.732,91.226 163.557,91.226 163.557,97.495 165.282,97.495 165.282,98.696 168.582,98.696 168.582,97.495 170.307,97.495 170.307,93.025 171.832,93.025 171.832,97.726 185.832,97.726 185.832,93.025 187.357,93.025 187.357,97.495 189.082,97.495 189.082,98.696 192.382,98.696 192.382,97.495 194.107,97.495 194.107,91.226 194.932,91.226 194.932,88.426 194.107,88.426 194.107,85.196 187.357,85.196 187.357,88.426 185.832,88.426 185.832,83.726" style="fill:none;stroke-width:0.050000mm;stroke:black"/>
<polygon points="128.968,83.726 128.968,88.426 127.444,88.426 127.444,85.196 120.694,85.196 120.694,88.426 119.869,88.426 119.869,91.226 120.694,91.226 120.694,97.495 122.419,97.495 122.419,98.696 125.719,98.696 125.719,97.495 127.444,97.495 127.444,93.025 128.968,93.025 128.968,97.726 142.969,97.726 142.969,93.025 144.494,93.025 144.494,97.495 146.219,97.495 146.219,98.696 149.519,98.696 149.519,97.495 151.244,97.495 151.244,91.226 152.069,91.226 152.069,88.426 151.244,88.426 151.244,85.196 144.494,85.196 144.494,88.426 142.969,88.426 142.969,83.726" style="fill:none;stroke-width:0.050000mm;stroke:black"/>
<polygon points="293.276,83.726 293.276,97.726 307.276,97.726 307.276,83.726" style="fill:none;stroke-width:0.050000mm;stroke:black"/>
<polygon points="274.226,83.726 274.226,97.726 288.226,97.726 288.226,83.726" style="fill:none;stroke-width:0.050000mm;stroke:black"/>
<polygon points="252.794,83.726 252.794,97.726 266.794,97.726 266.794,83.726" style="fill:none;stroke-width:0.050000mm;stroke:black"/>
<polygon points="228.982,83.726 228.982,97.726 242.982,97.726 242.982,83.726" style="fill:none;stroke-width:0.050000mm;stroke:black"/>
<polygon points="205.169,83.726 205.169,97.726 219.169,97.726 219.169,83.726" style="fill:none;stroke-width:0.050000mm;stroke:black"/>
<polygon points="98.013,83.726 98.013,97.726 112.013,97.726 112.013,83.726" style="fill:none;stroke-width:0.050000mm;stroke:black"/>
<polygon points="76.582,83.726 76.582,97.726 90.582,97.726 90.582,83.726" style="fill:none;stroke-width:0.050000mm;stroke:black"/>
<polygon points="52.769,83.726 52.769,97.726 66.769,97.726 66.769,83.726" style="fill:none;stroke-width:0.050000mm;stroke:black"/>
<polygon points="28.957,83.726 28.957,97.726 42.957,97.726 42.957,83.726" style="fill:none;stroke-width:0.050000mm;stroke:black"/>
<polygon points="7.526,83.726 7.526,97.726 21.526,97.726 21.526,83.726" style="fill:none;stroke-width:0.050000mm;stroke:black"/>
<polygon points="38.482,64.676 38.482,69.376 36.957,69.376 36.957,66.146 30.207,66.146 30.207,69.376 29.382,69.376 29.382,72.176 30.207,72.176 30.207,78.446 31.932,78.446 31.932,79.646 35.232,79.646 35.232,78.446 36.957,78.446 36.957,73.976 38.482,73.976 38.482,78.676 52.482,78.676 52.482,73.976 54.007,73.976 54.007,78.446 55.732,78.446 55.732,79.646 59.032,79.646 59.032,78.446 60.757,78.446 60.757,72.176 61.582,72.176 61.582,69.376 60.757,69.376 60.757,66.146 54.007,66.146 54.007,69.376 52.482,69.376 52.482,64.676" style="fill:none;stroke-width:0.050000mm;stroke:black"/>
<polygon points="293.276,64.676 293.276,78.676 307.276,78.676 307.276,64.676" style="fill:none;stroke-width:0.050000mm;stroke:black"/>
<polygon points="267.082,64.676 267.082,78.676 281.082,78.676 281.082,64.676" style="fill:none;stroke-width:0.050000mm;stroke:black"/>
<polygon points="240.888,64.676 240.888,78.676 254.888,78.676 254.888,64.676" style="fill:none;stroke-width:0.050000mm;stroke:black"/>
<polygon points="221.838,64.676 221.838,78.676 235.838,78.676 235.838,64.676" style="fill:none;stroke-width:0.050000mm;stroke:black"/>
<polygon points="202.788,64.676 202.788,78.676 216.788,78.676 216.788,64.676" style="fill:none;stroke-width:0.050000mm;stroke:black"/>
<polygon points="183.738,64.676 183.738,78.676 197.738,78.676 197.738,64.676" style="fill:none;stroke-width:0.050000mm;stroke:black"/>
<polygon points="164.688,64.676 164.688,78.676 178.688,78.676 178.688,64.676" style="fill:none;stroke-width:0.050000mm;stroke:black"/>
<polygon points="145.638,64.676 145.638,78.676 159.638,78.676 159.638,64.676" style="fill:none;stroke-width:0.050000mm;stroke:black"/>
<polygon points="126.588,64.676 126.588,78.676 140.588,78.676 140.588,64.676" style="fill:none;stroke-width:0.050000mm;stroke:black"/>
<polygon points="107.538,64.676 107.538,78.676 121.538,78.676 121.538,64.676" style="fill:none;stroke-width:0.050000mm;stroke:black"/>
<polygon points="88.488,64.676 88.488,78.676 102.488,78.676 102.488,64.676" style="fill:none;stroke-width:0.050000mm;stroke:black"/>
<polygon points="69.438,64.676 69.438,78.676 83.438,78.676 83.438,64.676" style="fill:none;stroke-width:0.050000mm;stroke:black"/>
<polygon points="7.526,64.676 7.526,78.676 21.526,78.676 21.526,64.676" style="fill:none;stroke-width:0.050000mm;stroke:black"/>
<polygon points="281.369,45.626 281.369,50.326 279.844,50.326 279.844,47.096 273.094,47.096 273.094,50.326 272.269,50.326 272.269,53.126 273.094,53.126 273.094,59.395 274.819,59.395 274.819,60.596 278.119,60.596 278.119,59.395 279.844,59.395 279.844,54.926 281.369,54.926 281.369,59.626 295.369,59.626 295.369,54.926 296.894,54.926 296.894,59.395 298.619,59.395 298.619,60.596 301.919,60.596 301.919,59.395 303.644,59.395 303.644,53.126 304.469,53.126 304.469,50.326 303.644,50.326 303.644,47.096 296.894,47.096 296.894,50.326 295.369,50.326 295.369,45.626" style="fill:none;stroke-width:0.050000mm;stroke:black"/>
<polygon points="250.413,45.626 250.413,59.626 264.413,59.626 264.413,45.626" style="fill:none;stroke-width:0.050000mm;stroke:black"/>
<polygon points="231.363,45.626 231.363,59.626 245.363,59.626 245.363,45.626" style="fill:none;stroke-width:0.050000mm;stroke:black"/>
<polygon points="212.313,45.626 212.313,59.626 226.313,59.626 226.313,45.626" style="fill:none;stroke-width:0.050000mm;stroke:black"/>
<polygon points="193.263,45.626 193.263,59.626 207.263,59.626 207.263,45.626" style="fill:none;stroke-width:0.050000mm;stroke:black"/>
<polygon points="174.213,45.626 174.213,59.626 188.213,59.626 188.213,45.626" style="fill:none;stroke-width:0.050000mm;stroke:black"/>
<polygon points="155.163,45.626 155.163,59.626 169.163,59.626 169.163,45.626" style="fill:none;stroke-width:0.050000mm;stroke:black"/>
<polygon points="136.113,45.626 136.113,59.626 150.113,59.626 150.113,45.626" style="fill:none;stroke-width:0.050000mm;stroke:black"/>
<polygon points="117.063,45.626 117.063,59.626 131.063,59.626 131.063,45.626" style="fill:none;stroke-width:0.050000mm;stroke:black"/>
<polygon points="98.013,45.626 98.013,59.626 112.013,59.626 112.013,45.626" style="fill:none;stroke-width:0.050000mm;stroke:black"/>
<polygon points="78.963,45.626 78.963,59.626 92.963,59.626 92.963,45.626" style="fill:none;stroke-width:0.050000mm;stroke:black"/>
<polygon points="59.913,45.626 59.913,59.626 73.913,59.626 73.913,45.626" style="fill:none;stroke-width:0.050000mm;stroke:black"/>
<polygon points="33.719,45.626 33.719,59.626 47.719,59.626 47.719,45.626" style="fill:none;stroke-width:0.050000mm;stroke:black"/>
<polygon points="7.526,45.626 7.526,59.626 21.526,59.626 21.526,45.626" style="fill:none;stroke-width:0.050000mm;stroke:black"/>
<polygon points="288.513,26.576 288.513,40.576 302.513,40.576 302.513,26.576" style="fill:none;stroke-width:0.050000mm;stroke:black"/>
<polygon points="264.701,26.576 264.701,40.576 278.701,40.576 278.701,26.576" style="fill:none;stroke-width:0.050000mm;stroke:black"/>
<polygon points="245.651,26.576 245.651,40.576 259.650,40.576 259.650,26.576" style="fill:none;stroke-width:0.050000mm;stroke:black"/>
<polygon points="226.601,26.576 226.601,40.576 240.601,40.576 240.601,26.576" style="fill:none;stroke-width:0.050000mm;stroke:black"/>
<polygon points="207.551,26.576 207.551,40.576 221.551,40.576 221.551,26.576" style="fill:none;stroke-width:0.050000mm;stroke:black"/>
<polygon points="188.501,26.576 188.501,40.576 202.501,40.576 202.501,26.576" style="fill:none;stroke-width:0.050000mm;stroke:black"/>
<polygon points="169.451,26.576 169.451,40.576 183.451,40.576 183.451,26.576" style="fill:none;stroke-width:0.050000mm;stroke:black"/>
<polygon points="150.401,26.576 150.401,40.576 164.401,40.576 164.401,26.576" style="fill:none;stroke-width:0.050000mm;stroke:black"/>
<polygon points="131.351,26.576 131.351,40.576 145.351,40.576 145.351,26.576" style="fill:none;stroke-width:0.050000mm;stroke:black"/>
<polygon points="112.301,26.576 112.301,40.576 126.301,40.576 126.301,26.576" style="fill:none;stroke-width:0.050000mm;stroke:black"/>
<polygon points="93.251,26.576 93.251,40.576 107.251,40.576 107.251,26.576" style="fill:none;stroke-width:0.050000mm;stroke:black"/>
<polygon points="74.201,26.576 74.201,40.576 88.201,40.576 88.201,26.576" style="fill:none;stroke-width:0.050000mm;stroke:black"/>
<polygon points="55.151,26.576 55.151,40.576 69.151,40.576 69.151,26.576" style="fill:none;stroke-width:0.050000mm;stroke:black"/>
<polygon points="31.338,26.576 31.338,40.576 45.338,40.576 45.338,26.576" style="fill:none;stroke-width:0.050000mm;stroke:black"/>
<polygon points="7.526,26.576 7.526,40.576 21.526,40.576 21.526,26.576" style="fill:none;stroke-width:0.050000mm;stroke:black"/>
<polygon points="283.751,7.526 283.751,12.226 282.226,12.226 282.226,8.996 275.476,8.996 275.476,12.226 274.651,12.226 274.651,15.026 275.476,15.026 275.476,21.296 277.201,21.296 277.201,22.496 280.501,22.496 280.501,21.296 282.226,21.296 282.226,16.826 283.751,16.826 283.751,21.526 297.751,21.526 297.751,16.826 299.276,16.826 299.276,21.296 301.001,21.296 301.001,22.496 304.301,22.496 304.301,21.296 306.026,21.296 306.026,15.026 306.851,15.026 306.851,12.226 306.026,12.226 306.026,8.996 299.276,8.996 299.276,12.226 297.751,12.226 297.751,7.526" style="fill:none;stroke-width:0.050000mm;stroke:black"/>
<polygon points="255.176,7.526 255.176,21.526 269.176,21.526 269.176,7.526" style="fill:none;stroke-width:0.050000mm;stroke:black"/>
<polygon points="236.126,7.526 236.126,21.526 250.126,21.526 250.126,7.526" style="fill:none;stroke-width:0.050000mm;stroke:black"/>
<polygon points="217.076,7.526 217.076,21.526 231.076,21.526 231.076,7.526" style="fill:none;stroke-width:0.050000mm;stroke:black"/>
<polygon points="198.026,7.526 198.026,21.526 212.026,21.526 212.026,7.526" style="fill:none;stroke-width:0.050000mm;stroke:black"/>
<polygon points="178.976,7.526 178.976,21.526 192.976,21.526 192.976,7.526" style="fill:none;stroke-width:0.050000mm;stroke:black"/>
<polygon points="159.926,7.526 159.926,21.526 173.926,21.526 173.926,7.526" style="fill:none;stroke-width:0.050000mm;stroke:black"/>
<polygon points="140.876,7.526 140.876,21.526 154.876,21.526 154.876,7.526" style="fill:none;stroke-width:0.050000mm;stroke:black"/>
<polygon points="121.825,7.526 121.825,21.526 135.826,21.526 135.826,7.526" style="fill:none;stroke-width:0.050000mm;stroke:black"/>
<polygon points="102.775,7.526 102.775,21.526 116.775,21.526 116.775,7.526" style="fill:none;stroke-width:0.050000mm;stroke:black"/>
<polygon points="83.726,7.526 83.726,21.526 97.726,21.526 97.726,7.526" style="fill:none;stroke-width:0.050000mm;stroke:black"/>
<polygon points="64.676,7.526 64.676,21.526 78.676,21.526 78.676,7.526" style="fill:none;stroke-width:0.050000mm;stroke:black"/>
<polygon points="45.626,7.526 45.626,21.526 59.626,21.526 59.626,7.526" style="fill:none;stroke-width:0.050000mm;stroke:black"/>
<polygon points="26.576,7.526 26.576,21.526 40.576,21.526 40.576,7.526" style="fill:none;stroke-width:0.050000mm;stroke:black"/>
<polygon points="7.526,7.526 7.526,21.526 21.526,21.526 21.526,7.526" style="fill:none;stroke-width:0.050000mm;stroke:black"/>
</svg>